<svg width="35" height="34" viewBox="0 0 35 34" fill="none" xmlns="http://www.w3.org/2000/svg">
<path d="M10.4167 21.25H13.25C13.25 22.78 15.1908 24.0833 17.5 24.0833C19.8092 24.0833 21.75 22.78 21.75 21.25C21.75 19.6917 20.2767 19.125 17.16 18.3742C14.1567 17.6233 10.4167 16.6883 10.4167 12.75C10.4167 10.2142 12.4992 8.06083 15.375 7.33833V4.25H19.625V7.33833C22.5008 8.06083 24.5833 10.2142 24.5833 12.75H21.75C21.75 11.22 19.8092 9.91667 17.5 9.91667C15.1908 9.91667 13.25 11.22 13.25 12.75C13.25 14.3083 14.7233 14.875 17.84 15.6258C20.8433 16.3767 24.5833 17.3117 24.5833 21.25C24.5833 23.7858 22.5008 25.9392 19.625 26.6617V29.75H15.375V26.6617C12.4992 25.9392 10.4167 23.7858 10.4167 21.25Z" fill="url(#paint0_linear_202_81)"/>
<defs>
<linearGradient id="paint0_linear_202_81" x1="17.5" y1="4.25" x2="17.5" y2="29.75" gradientUnits="userSpaceOnUse">
<stop stop-color="#439DEE"/>
<stop offset="1" stop-color="#1E78E9"/>
</linearGradient>
</defs>
</svg>
