<svg width="35" height="34" viewBox="0 0 35 34" fill="none" xmlns="http://www.w3.org/2000/svg">
<path d="M17.5 26.9167C19.0584 26.9167 20.3334 28.1917 20.3334 29.75C20.3334 31.3083 19.0584 32.5833 17.5 32.5833C15.9417 32.5833 14.6667 31.3083 14.6667 29.75C14.6667 28.1917 15.9417 26.9167 17.5 26.9167ZM17.5 1.41666C19.0584 1.41666 20.3334 2.69166 20.3334 4.24999C20.3334 5.80832 19.0584 7.08332 17.5 7.08332C15.9417 7.08332 14.6667 5.80832 14.6667 4.24999C14.6667 2.69166 15.9417 1.41666 17.5 1.41666ZM9.00002 22.6667C10.5584 22.6667 11.8334 23.9417 11.8334 25.5C11.8334 27.0583 10.5584 28.3333 9.00002 28.3333C7.44169 28.3333 6.16669 27.0583 6.16669 25.5C6.16669 23.9417 7.44169 22.6667 9.00002 22.6667ZM4.75002 14.1667C6.30835 14.1667 7.58335 15.4417 7.58335 17C7.58335 18.5583 6.30835 19.8333 4.75002 19.8333C3.19169 19.8333 1.91669 18.5583 1.91669 17C1.91669 15.4417 3.19169 14.1667 4.75002 14.1667ZM9.00002 5.66666C10.5584 5.66666 11.8334 6.94166 11.8334 8.49999C11.8334 10.0583 10.5584 11.3333 9.00002 11.3333C7.44169 11.3333 6.16669 10.0583 6.16669 8.49999C6.16669 6.94166 7.44169 5.66666 9.00002 5.66666ZM26 22.6667C27.5584 22.6667 28.8334 23.9417 28.8334 25.5C28.8334 27.0583 27.5584 28.3333 26 28.3333C24.4417 28.3333 23.1667 27.0583 23.1667 25.5C23.1667 23.9417 24.4417 22.6667 26 22.6667ZM30.25 14.1667C31.8084 14.1667 33.0834 15.4417 33.0834 17C33.0834 18.5583 31.8084 19.8333 30.25 19.8333C28.6917 19.8333 27.4167 18.5583 27.4167 17C27.4167 15.4417 28.6917 14.1667 30.25 14.1667ZM26 5.66666C27.5584 5.66666 28.8334 6.94166 28.8334 8.49999C28.8334 10.0583 27.5584 11.3333 26 11.3333C24.4417 11.3333 23.1667 10.0583 23.1667 8.49999C23.1667 6.94166 24.4417 5.66666 26 5.66666Z" fill="url(#paint0_linear_202_77)"/>
<defs>
<linearGradient id="paint0_linear_202_77" x1="17.5" y1="1.41666" x2="17.5" y2="32.5833" gradientUnits="userSpaceOnUse">
<stop stop-color="#439DEE"/>
<stop offset="1" stop-color="#1E78E9"/>
</linearGradient>
</defs>
</svg>
