<svg width="35" height="34" viewBox="0 0 35 34" fill="none" xmlns="http://www.w3.org/2000/svg">
<path d="M25.8583 24.6358C25.49 23.5025 24.4275 22.6666 23.1666 22.6666H21.75V18.4166C21.75 18.0409 21.6007 17.6806 21.335 17.4149C21.0694 17.1492 20.709 17 20.3333 17H11.8333V14.1666H14.6666C15.0424 14.1666 15.4027 14.0174 15.6684 13.7517C15.9341 13.486 16.0833 13.1257 16.0833 12.75V9.91665H18.9166C19.6681 9.91665 20.3888 9.61813 20.9201 9.08678C21.4515 8.55543 21.75 7.83476 21.75 7.08331V6.50248C25.9008 8.17415 28.8333 12.24 28.8333 17C28.8333 19.9466 27.7 22.6241 25.8583 24.6358ZM16.0833 28.2341C10.4875 27.54 6.16665 22.78 6.16665 17C6.16665 16.1216 6.27998 15.2716 6.46415 14.4641L13.25 21.25V22.6666C13.25 23.4181 13.5485 24.1388 14.0798 24.6701C14.6112 25.2015 15.3319 25.5 16.0833 25.5V28.2341ZM17.5 2.83331C15.6396 2.83331 13.7974 3.19974 12.0786 3.91169C10.3599 4.62363 8.79813 5.66714 7.48263 6.98263C4.82587 9.6394 3.33331 13.2427 3.33331 17C3.33331 20.7572 4.82587 24.3606 7.48263 27.0173C8.79813 28.3328 10.3599 29.3763 12.0786 30.0883C13.7974 30.8002 15.6396 31.1666 17.5 31.1666C21.2572 31.1666 24.8606 29.6741 27.5173 27.0173C30.1741 24.3606 31.6666 20.7572 31.6666 17C31.6666 15.1396 31.3002 13.2974 30.5883 11.5786C29.8763 9.85985 28.8328 8.29813 27.5173 6.98263C26.2018 5.66714 24.6401 4.62363 22.9213 3.91169C21.2025 3.19974 19.3604 2.83331 17.5 2.83331Z" fill="url(#paint0_linear_202_69)"/>
<defs>
<linearGradient id="paint0_linear_202_69" x1="17.5" y1="2.83331" x2="17.5" y2="31.1666" gradientUnits="userSpaceOnUse">
<stop stop-color="#439DEE"/>
<stop offset="1" stop-color="#1E78E9"/>
</linearGradient>
</defs>
</svg>
